<svg xmlns="http://www.w3.org/2000/svg" width="235" height="30" viewBox="0 0 235 30">
    <g fill="none" fill-rule="evenodd">
        <path fill="#001E42" d="M130.496.013c-.937-.022-1.971.352-2.983.881-2.122 1.092-3.427 3.052-3.273 4.705v8.68c-.154 1.644 1.174 3.604 3.282 4.706 1.025.528 2.051.76 2.984.745l13.844-.019c.908.03 1.972-.202 2.993-.73 2.104-1.098 3.471-3.062 3.318-4.703V5.514c.153-1.652-1.214-3.612-3.33-4.714-1.042-.518-2.087-.809-3.01-.787h-13.825zm9.887 13.98c-.2 1.754-1.349 3.093-2.774 3.083-1.532-.007-2.795-1.576-2.795-3.57V6.209c0-1.987 1.206-3.583 2.746-3.583s2.823 1.596 2.823 3.583v7.784zM16.532 8.033c.793-.865 1.185-1.371 2.6-1.405 1.538-.035 2.394.678 3.031 1.39-.598-.488-1.55-.938-3.055-.94-.218 0-1.54.075-2.563.995M24.476.07C16.37-.03 8.298.062.18.074a39.732 39.732 0 0 0-.107 5.6c.685 13.496 5.283 24.054 12.29 24.054 7.647 0 11.844-10.958 12.292-24.054.067-1.93 0-3.805-.179-5.603M13.723 18.46c.303-.355.767-.396 1.049-.371.222.022-.293.282-.199.253l-.022.013c-.572.35-.976 1.5-1.925 1.514-.97.017-1.42-1.057-2.363-1.62-.059-.038-.138-.123-.2-.156l-.003-.041.017-.005c-.058-.11.232-.136.544-.042l-.002-.003.014.01.04.01.001.009.16.076c1.032 1.046 1.619 1.07 1.568 1.062.477.073.96-.289 1.321-.709M7.017 3.344c2.102.482 6.246 3.257 4.656 12.097-.038.215-.3.748-.3.748l-.036-.04c.063-.354.098-1.397.11-1.515.793-7.999-2.445-9.647-4.493-10.118-2.125-.49-3.178-.02-6.064 1.664C2.62 4 4.925 2.86 7.017 3.344m-1.415 7.78c-2.448-.093-3.01-1.97-4.027-2.456.865-.72 1.58-2.421 4.027-2.514C7.6 6.079 9.352 8.779 9.77 8.929c-.889.318-2.401 2.261-4.167 2.195m12.518 9.908c-1.676 1.2-2.977 4.007-5.676 4.007-2.275 0-3.737-3.194-5.518-4.032-2.152-1.015 5.006.48 5.437.48.529 0 6.49-.978 5.757-.455m1.203-10.007c-2.098.1-3.59-2.133-4.034-2.149l-.017-.092c.912-.335 1.978-3.253 4.376-2.788 2.602.503 2.96 2.557 3.602 2.86l.062.073c-1.128 0-1.54 1.98-3.99 2.096m-1.364-6.744c-2.14.45-5.257 2.853-4.683 10.033.009.119.026 1.16.083 1.516l-.039.04s-.25-.54-.284-.756C11.61 6.247 15.807 3.553 17.918 3.11c2.1-.443 4.701.705 6.391 2.917-2.851-1.737-4.216-2.193-6.351-1.745M5.583 6.766c-1.537-.05-2.4.657-3.044 1.361.601-.48 1.556-.871 3.058-.83 1.344.04 2.283.556 2.911 1.133l.018-.04c-.784-.874-1.529-1.576-2.943-1.624"/>
        <path d="M226.232 24.158h8.035v5.58h-8.035z"/>
        <path fill="#001E42" d="M233.735 24.158h-6.97a.534.534 0 0 0-.533.534v2.207c0 .02.004.039.005.058v2.248c0 .294.24.533.533.533h.41c.294 0 .532-.24.532-.533v-1.773h6.023a.533.533 0 0 0 .533-.533v-2.207a.534.534 0 0 0-.533-.534zm-6.023 2.305h5.08V25.14h-5.08v1.323zM42.24 24.158h-6.969a.534.534 0 0 0-.533.534v2.207c0 .02.004.039.006.058v2.248c0 .294.238.533.533.533h.408c.294 0 .533-.24.533-.533v-1.773h6.023a.533.533 0 0 0 .533-.533v-2.207a.534.534 0 0 0-.533-.534zm-6.021 2.305h5.08V25.14h-5.08v1.323zM53.07 26.899v-2.207a.533.533 0 0 0-.533-.534h-6.97a.533.533 0 0 0-.532.534v2.207c0 .02.003.039.005.058v2.249c0 .293.24.533.534.533h.408c.294 0 .533-.24.533-.533v-1.773h2.16c.849.719 2.996 2.115 3.4 2.239.448.16.754-.104.754-.104s.426-.24.135-.531c-.176-.25-1.543-1.211-2.288-1.604h1.86c.296 0 .534-.24.534-.534zm-6.555-.436h5.08v-1.322h-5.08v1.322zM63.26 24.163h-6.967a.533.533 0 0 0-.533.534v4.51c0 .295.24.535.533.535h6.968c.294 0 .533-.24.533-.534v-4.511a.533.533 0 0 0-.533-.534zm-6.033 4.596h5.089V25.14h-5.089v3.618zM119.545 24.163h-6.966a.533.533 0 0 0-.533.534v4.51c0 .295.238.535.533.535h6.966c.295 0 .533-.24.533-.534v-4.511a.533.533 0 0 0-.533-.534zm-6.034 4.596h5.09V25.14h-5.09v3.618zM74.054 26.464h-6.066V25.14h6.066a.488.488 0 0 0 0-.978H67.04a.533.533 0 0 0-.533.534v4.511c0 .294.24.533.533.533h.414c.295 0 .534-.24.534-.533v-1.767h6.066a.488.488 0 0 0 0-.977M84.039 27.44a.488.488 0 1 0 0-.977h-6.067V25.14h6.067a.488.488 0 1 0 0-.977h-7.014a.534.534 0 0 0-.533.533v4.511c0 .295.239.534.533.534h7.006a.49.49 0 0 0 0-.982h-6.059v-1.318h6.067zM204.218 27.44a.488.488 0 0 0 0-.977h-6.068V25.14h6.068a.488.488 0 1 0 0-.977h-7.015a.534.534 0 0 0-.533.533v4.511c0 .295.24.534.533.534h7.006a.49.49 0 0 0 0-.982h-6.059v-1.318h6.068zM94.268 26.468h-6.073V25.14h6.073a.488.488 0 0 0 0-.977h-7.07a.488.488 0 0 0-.487.488v2.306c0 .269.218.488.488.488h6.073v1.321h-6.073a.488.488 0 0 0 0 .977h7.069c.27 0 .488-.218.488-.488v-2.298a.488.488 0 0 0-.488-.489M104.835 26.468H98.76V25.14h6.074a.488.488 0 0 0 0-.977h-7.07a.488.488 0 0 0-.487.488v2.306c0 .269.218.488.488.488h6.073v1.321h-6.073a.488.488 0 0 0 0 .977h7.069a.487.487 0 0 0 .487-.488v-2.298a.488.488 0 0 0-.487-.489M109.313 29.208a.534.534 0 0 1-.533.533h-.414a.533.533 0 0 1-.533-.533v-4.511c0-.295.238-.534.533-.534h.414c.294 0 .533.24.533.534v4.51zM130.25 24.163h-.42a.533.533 0 0 0-.533.534v3.373c-1.273-.94-3.848-2.791-5.103-3.559-.374-.229-.635-.366-.704-.348h-.208a.533.533 0 0 0-.533.534v4.51c0 .295.24.535.533.535h.414c.295 0 .533-.24.533-.534v-3.289l2.24 1.67s1.819 1.355 2.892 1.957c.306.172.554.285.68.285h.21c.294 0 .533-.24.533-.533v-4.601a.534.534 0 0 0-.534-.534M182.897 24.163h-6.97a.533.533 0 0 0-.532.534v4.51c0 .295.238.535.532.535h.403c.294 0 .532-.24.532-.534V27.44h5.099v1.767c0 .294.238.534.533.534h.403c.294 0 .533-.24.533-.534v-4.511a.533.533 0 0 0-.533-.534zm-6.035 2.3h5.1v-1.322h-5.1v1.323zM141.005 24.163h-6.97a.533.533 0 0 0-.532.534v4.51c0 .295.238.535.532.535h.403c.295 0 .534-.24.534-.534V27.44h5.098v1.767c0 .294.238.534.532.534h.403c.294 0 .533-.24.533-.534v-4.511a.533.533 0 0 0-.533-.534zm-6.033 2.3h5.098v-1.322h-5.098v1.323zM151.803 28.759h-6.076v-4.062a.533.533 0 0 0-.532-.534h-.408a.533.533 0 0 0-.534.534v4.51c0 .295.24.534.534.534h7.016a.49.49 0 1 0 0-.982M172.13 24.163h-.208c-.094-.021-.333.071-.638.222-.985.483-2.686 1.584-2.686 1.584s-1.604-1.005-2.551-1.517c-.282-.152-.508-.263-.614-.289h-.274a.533.533 0 0 0-.532.534v4.51c0 .295.238.535.532.535h.417c.295 0 .533-.24.533-.534v-3.324c.744.505 1.866 1.188 2.489 1.188.629 0 1.81-.718 2.583-1.236v3.372c0 .294.239.534.533.534h.416c.293 0 .533-.24.533-.534v-4.511a.534.534 0 0 0-.533-.534M223.013 24.163h-.418a.533.533 0 0 0-.533.534v4.062h-5.093v-4.062a.533.533 0 0 0-.533-.534h-.418a.533.533 0 0 0-.533.534v4.51c0 .295.24.535.533.535h6.995c.294 0 .533-.24.533-.534v-4.511a.533.533 0 0 0-.533-.534M212.66 26.842a.508.508 0 0 1-.507.509h-4.141a.508.508 0 1 1 0-1.017h4.14c.28 0 .508.227.508.508M194.126 24.819c.052-.322-.311-.593-.8-.525-.431.071-2.44 1.483-3.14 2.169h-2.542l.025-1.087c-.164-1.476-1.001-1.213-1.001-1.213a.533.533 0 0 0-.533.534v4.511c0 .294.239.533.533.533h.443c.295 0 .533-.24.533-.533v-1.775h2.374c.728.643 3.142 2.286 3.309 2.286.366.022.946-.134.758-.63-.31-.423-1.772-1.527-2.673-2.075.722-.51 2.67-1.926 2.714-2.195M88.307 12.663c1.924-.544 3.398-3.133 3.398-6.245 0-3.449-1.789-6.312-4.023-6.405L65.789.025v19.687h10.292v-6.134l4.6 6.19h11.97l-4.344-7.105zm-9.204-4.076l-3.022-.022V3.72h3.055c1.023.022 1.83 1.118 1.83 2.445 0 1.34-.836 2.423-1.863 2.423zM49.838.025l-4.78 6.763V.025H34.75v19.742h10.31v-7.246l5.606 7.246h11.332L54.962 9.212 61.1.025zM224.436.024v6.157l-5.81-6.12V.024h-10.1v19.743h10.1v-7.29l5.81 7.29h9.827V.024zM154.944.025v19.687h19.5v-5.72h-8.756V.025zM110.856.051l-2.78 3.712-2.983-3.712H93.31l9.632 13.47v6.191h10.262v-6.161l9.607-13.5zM183.456.013l-6.427 19.699h10.091l1.016-2.878h6.983l1.04 2.878h10.079l-6.49-19.7h-16.292zm8.29 7.084l1.876 5.484h-3.96l2.083-5.484z"/>
    </g>
</svg>
